<svg width="24" height="24" viewBox="0 0 24 24" fill="none" xmlns="http://www.w3.org/2000/svg">
<g clip-path="url(#clip0_5453_613)">
<path d="M8.13027 11.8275H8.14029M12.1305 11.8275H12.1405M16.1312 11.8275H16.1413M3.12074 16.1702C3.2678 16.5411 3.30054 16.9476 3.21475 17.3373L2.1496 20.6278C2.11528 20.7947 2.12415 20.9675 2.17538 21.13C2.22661 21.2925 2.31849 21.4392 2.44231 21.5562C2.56613 21.6732 2.71779 21.7566 2.8829 21.7986C3.04802 21.8406 3.22111 21.8396 3.38578 21.796L6.79926 20.7978C7.16703 20.7249 7.5479 20.7567 7.89842 20.8898C10.0341 21.8872 12.4534 22.0982 14.7295 21.4856C17.0056 20.8731 18.9923 19.4763 20.3389 17.5417C21.6855 15.6072 22.3056 13.2591 22.0897 10.912C21.8739 8.56476 20.836 6.36922 19.1591 4.71272C17.4822 3.05621 15.2742 2.04518 12.9245 1.85801C10.5749 1.67084 8.2346 2.31956 6.31664 3.68971C4.39867 5.05986 3.02626 7.0634 2.44154 9.34682C1.85681 11.6302 2.09736 14.0468 3.12074 16.1702Z" stroke="#FA5A0B" stroke-width="2.00376" stroke-linecap="round" stroke-linejoin="round"/>
</g>
<defs>
<clipPath id="clip0_5453_613">
<rect width="24.0034" height="24.0034" fill="white"/>
</clipPath>
</defs>
</svg>
